<svg width="85" height="85" viewBox="0 0 85 85" fill="none" xmlns="http://www.w3.org/2000/svg">
<circle cx="42.5" cy="42.5" r="42" stroke="white"/>
<path d="M63.6746 56.3348H59.3157C59.1437 56.3348 58.9787 56.2665 58.857 56.1448C58.7354 56.0232 58.667 55.8582 58.667 55.6862C58.667 55.5141 58.7354 55.3491 58.857 55.2275C58.9787 55.1058 59.1437 55.0375 59.3157 55.0375H63.6746C63.7898 55.0373 63.9003 54.9915 63.9817 54.91C64.0632 54.8286 64.109 54.7181 64.1092 54.6029V52.5532C64.1077 51.1481 63.5488 49.8011 62.5553 48.8076C61.5618 47.8141 60.2148 47.2553 58.8098 47.2537H21.2984V53.8505C21.2987 54.1652 21.4239 54.4669 21.6464 54.6895C21.869 54.912 22.1707 55.0372 22.4854 55.0375H25.2422C25.4142 55.0375 25.5792 55.1058 25.7008 55.2275C25.8225 55.3491 25.8908 55.5141 25.8908 55.6862C25.8908 55.8582 25.8225 56.0232 25.7008 56.1448C25.5792 56.2665 25.4142 56.3348 25.2422 56.3348H22.4854C21.8268 56.3341 21.1953 56.0722 20.7295 55.6064C20.2637 55.1406 20.0018 54.5091 20.0011 53.8505V46.6051C20.0011 46.433 20.0694 46.2681 20.1911 46.1464C20.3127 46.0248 20.4777 45.9564 20.6497 45.9564H58.8098C60.5587 45.9583 62.2356 46.6539 63.4723 47.8907C64.709 49.1274 65.4046 50.8042 65.4065 52.5532V54.6029C65.406 55.0621 65.2234 55.5023 64.8987 55.827C64.574 56.1517 64.1338 56.3343 63.6746 56.3348Z" fill="white"/>
<path d="M51.3503 56.3349H33.4022C33.2302 56.3349 33.0652 56.2666 32.9435 56.1449C32.8219 56.0233 32.7535 55.8583 32.7535 55.6862C32.7535 55.5142 32.8219 55.3492 32.9435 55.2276C33.0652 55.1059 33.2302 55.0376 33.4022 55.0376H51.3503C51.5223 55.0376 51.6873 55.1059 51.8089 55.2276C51.9306 55.3492 51.9989 55.5142 51.9989 55.6862C51.9989 55.8583 51.9306 56.0233 51.8089 56.1449C51.6873 56.2666 51.5223 56.3349 51.3503 56.3349Z" fill="white"/>
<path d="M20.6498 47.2571C20.6022 47.257 20.5548 47.2518 20.5084 47.2415C20.4252 47.2231 20.3464 47.1884 20.2766 47.1396C20.2068 47.0907 20.1474 47.0286 20.1016 46.9567C20.0558 46.8848 20.0246 46.8047 20.0098 46.7208C19.9951 46.6368 19.9969 46.5508 20.0154 46.4677C20.844 43.2415 22.7611 40.4003 25.4427 38.4244C26.297 37.8356 27.311 37.5221 28.3486 37.526H44.7296C45.6118 37.5271 46.4844 37.7102 47.2926 38.064C48.1008 38.4178 48.8272 38.9347 49.4264 39.5823L55.5043 46.1673C55.566 46.2291 55.6147 46.3027 55.6473 46.3837C55.6799 46.4647 55.6958 46.5515 55.6941 46.6388C55.6923 46.7262 55.673 46.8122 55.6372 46.8919C55.6014 46.9715 55.5498 47.0432 55.4857 47.1024C55.4215 47.1617 55.3461 47.2074 55.2638 47.2368C55.1816 47.2661 55.0942 47.2786 55.007 47.2734C54.9199 47.2683 54.8346 47.2455 54.7564 47.2066C54.6783 47.1677 54.6087 47.1133 54.5521 47.0469L48.4768 40.4638C47.999 39.9476 47.4198 39.5357 46.7755 39.2536C46.1311 38.9716 45.4355 38.8255 44.7322 38.8246H28.3492C27.5746 38.8218 26.8177 39.0561 26.1802 39.496C22.3434 42.1444 21.2932 46.7031 21.2835 46.7492C21.2515 46.8933 21.1712 47.0222 21.056 47.1146C20.9407 47.2069 20.7975 47.2572 20.6498 47.2571Z" fill="white"/>
<path d="M40.758 47.2571C40.6032 47.2568 40.4536 47.2013 40.3362 47.1004C40.2187 46.9995 40.1413 46.86 40.1177 46.707L38.8205 38.2746C38.8042 38.1889 38.8054 38.1008 38.8239 38.0156C38.8425 37.9304 38.878 37.8499 38.9284 37.7787C38.9788 37.7076 39.043 37.6473 39.1173 37.6015C39.1915 37.5558 39.2742 37.5254 39.3604 37.5124C39.4466 37.4993 39.5345 37.5037 39.619 37.5254C39.7034 37.547 39.7827 37.5855 39.8519 37.6385C39.9212 37.6915 39.979 37.7579 40.022 37.8338C40.065 37.9096 40.0923 37.9933 40.1022 38.08L41.3995 46.5124C41.4133 46.6047 41.407 46.6988 41.3811 46.7885C41.3552 46.8781 41.3103 46.9611 41.2494 47.0318C41.1885 47.1025 41.1131 47.1592 41.0283 47.1981C40.9435 47.2369 40.8513 47.2571 40.758 47.2571Z" fill="white"/>
<path d="M28.4337 47.2571C28.369 47.2572 28.3046 47.2473 28.243 47.2279C28.0786 47.1773 27.9411 47.0636 27.8606 46.9117C27.78 46.7598 27.7631 46.5821 27.8135 46.4177L30.4081 37.9853C30.4332 37.9039 30.474 37.8282 30.5283 37.7625C30.5826 37.6968 30.6493 37.6425 30.7246 37.6027C30.7999 37.5628 30.8823 37.5381 30.9671 37.5301C31.0519 37.5221 31.1375 37.5308 31.219 37.5559C31.3004 37.5809 31.3761 37.6218 31.4417 37.6761C31.5074 37.7304 31.5617 37.7971 31.6016 37.8724C31.6415 37.9476 31.6661 38.0301 31.6741 38.1149C31.6822 38.1997 31.6734 38.2853 31.6484 38.3667L29.0538 46.7991C29.013 46.9317 28.9307 47.0478 28.8191 47.1302C28.7075 47.2126 28.5724 47.2571 28.4337 47.2571Z" fill="white"/>
<path d="M55.3389 60.5121C54.422 60.5123 53.5257 60.2405 52.7632 59.7312C52.0007 59.2218 51.4064 58.4979 51.0555 57.6508C50.7045 56.8037 50.6126 55.8715 50.7914 54.9722C50.9702 54.0729 51.4117 53.2468 52.06 52.5984C52.7083 51.95 53.5343 51.5084 54.4336 51.3295C55.3329 51.1506 56.2651 51.2423 57.1122 51.5932C57.9594 51.944 58.6834 52.5382 59.1929 53.3006C59.7023 54.063 59.9742 54.9593 59.9742 55.8762C59.9728 57.1052 59.484 58.2835 58.6151 59.1526C57.7461 60.0217 56.5679 60.5106 55.3389 60.5121ZM55.3389 52.5383C54.6786 52.5382 54.033 52.7339 53.4839 53.1007C52.9347 53.4675 52.5067 53.9889 52.254 54.599C52.0012 55.209 51.935 55.8804 52.0638 56.5281C52.1926 57.1758 52.5106 57.7707 52.9775 58.2376C53.4445 58.7046 54.0394 59.0226 54.6871 59.1514C55.3348 59.2802 56.0061 59.214 56.6162 58.9612C57.2263 58.7085 57.7477 58.2804 58.1145 57.7313C58.4813 57.1822 58.677 56.5366 58.6769 55.8762C58.6762 54.9911 58.3244 54.1423 57.6986 53.5163C57.0727 52.8902 56.2241 52.538 55.3389 52.537V52.5383Z" fill="white"/>
<path d="M55.3389 58.0545C54.9078 58.0546 54.4864 57.9269 54.1279 57.6875C53.7694 57.4481 53.49 57.1077 53.3249 56.7095C53.1598 56.3113 53.1166 55.873 53.2006 55.4502C53.2846 55.0274 53.4922 54.639 53.7969 54.3341C54.1017 54.0293 54.4901 53.8216 54.9128 53.7375C55.3356 53.6533 55.7739 53.6965 56.1722 53.8614C56.5705 54.0263 56.9109 54.3057 57.1504 54.6641C57.3899 55.0225 57.5177 55.4439 57.5177 55.875C57.5172 56.4528 57.2875 57.0067 56.879 57.4153C56.4706 57.8239 55.9167 58.0538 55.3389 58.0545ZM55.3389 54.9935C55.1644 54.9934 54.9937 55.045 54.8486 55.1419C54.7034 55.2388 54.5902 55.3766 54.5234 55.5378C54.4565 55.699 54.439 55.8764 54.473 56.0476C54.5071 56.2188 54.5911 56.376 54.7145 56.4995C54.8379 56.6229 54.9952 56.7069 55.1663 56.7409C55.3375 56.7749 55.5149 56.7574 55.6762 56.6906C55.8374 56.6237 55.9752 56.5105 56.072 56.3654C56.1689 56.2202 56.2206 56.0495 56.2204 55.875C56.2201 55.6413 56.1271 55.4173 55.9619 55.2521C55.7966 55.0868 55.5726 54.9938 55.3389 54.9935Z" fill="white"/>
<path d="M29.3229 58.0545C28.8918 58.0545 28.4705 57.9267 28.1121 57.6872C27.7536 57.4477 27.4743 57.1073 27.3093 56.7091C27.1444 56.3108 27.1012 55.8726 27.1853 55.4498C27.2694 55.0271 27.477 54.6387 27.7818 54.3339C28.0866 54.0291 28.4749 53.8215 28.8977 53.7374C29.3205 53.6533 29.7587 53.6965 30.1569 53.8615C30.5552 54.0264 30.8956 54.3058 31.135 54.6642C31.3745 55.0226 31.5024 55.444 31.5024 55.875C31.5018 56.4529 31.2721 57.0069 30.8634 57.4156C30.4548 57.8242 29.9008 58.054 29.3229 58.0545ZM29.3229 54.9935C29.1484 54.9935 28.9778 55.0453 28.8327 55.1422C28.6876 55.2392 28.5746 55.377 28.5078 55.5382C28.4411 55.6995 28.4236 55.8769 28.4577 56.048C28.4918 56.2191 28.5759 56.3763 28.6993 56.4997C28.8228 56.623 28.98 56.707 29.1512 56.741C29.3224 56.7749 29.4997 56.7574 29.6609 56.6905C29.8221 56.6236 29.9598 56.5105 30.0567 56.3653C30.1536 56.2201 30.2052 56.0495 30.2051 55.875C30.2049 55.6412 30.1119 55.417 29.9464 55.2517C29.781 55.0864 29.5567 54.9935 29.3229 54.9935Z" fill="white"/>
<path d="M29.3229 60.6082C28.3864 60.6082 27.4709 60.3305 26.6922 59.8102C25.9135 59.2899 25.3066 58.5504 24.9482 57.6851C24.5898 56.8199 24.496 55.8678 24.6788 54.9493C24.8615 54.0308 25.3124 53.1871 25.9747 52.5248C26.6369 51.8626 27.4806 51.4116 28.3991 51.2289C29.3177 51.0462 30.2697 51.14 31.135 51.4984C32.0002 51.8568 32.7397 52.4637 33.26 53.2424C33.7803 54.0211 34.058 54.9366 34.058 55.8731C34.0572 57.1287 33.558 58.3326 32.6702 59.2204C31.7824 60.1082 30.5785 60.6074 29.3229 60.6082ZM29.3229 52.4391C28.643 52.4391 27.9783 52.6408 27.4129 53.0185C26.8476 53.3963 26.407 53.9332 26.1468 54.5614C25.8866 55.1896 25.8185 55.8808 25.9511 56.5477C26.0838 57.2145 26.4112 57.8271 26.892 58.3079C27.3728 58.7887 27.9853 59.1161 28.6522 59.2488C29.3191 59.3814 30.0103 59.3133 30.6385 59.0531C31.2667 58.7929 31.8036 58.3523 32.1814 57.7869C32.5591 57.2216 32.7607 56.5569 32.7607 55.877C32.7607 55.4255 32.6718 54.9785 32.4991 54.5614C32.3263 54.1443 32.0731 53.7653 31.7538 53.4461C31.4346 53.1268 31.0556 52.8736 30.6385 52.7008C30.2214 52.5281 29.7744 52.4391 29.3229 52.4391Z" fill="white"/>
<path d="M45.947 50.5003H44.6497C44.4777 50.5003 44.3127 50.432 44.1911 50.3103C44.0694 50.1887 44.0011 50.0237 44.0011 49.8516C44.0011 49.6796 44.0694 49.5146 44.1911 49.393C44.3127 49.2713 44.4777 49.203 44.6497 49.203H45.947C46.1191 49.203 46.2841 49.2713 46.4057 49.393C46.5274 49.5146 46.5957 49.6796 46.5957 49.8516C46.5957 50.0237 46.5274 50.1887 46.4057 50.3103C46.2841 50.432 46.1191 50.5003 45.947 50.5003Z" fill="white"/>
<path d="M38.4876 50.5003H37.1903C37.0182 50.5003 36.8533 50.432 36.7316 50.3103C36.61 50.1887 36.5416 50.0237 36.5416 49.8516C36.5416 49.6796 36.61 49.5146 36.7316 49.393C36.8533 49.2713 37.0182 49.203 37.1903 49.203H38.4876C38.6596 49.203 38.8246 49.2713 38.9462 49.393C39.0679 49.5146 39.1362 49.6796 39.1362 49.8516C39.1362 50.0237 39.0679 50.1887 38.9462 50.3103C38.8246 50.432 38.6596 50.5003 38.4876 50.5003Z" fill="white"/>
<path d="M40.542 38.8246H32.515C32.3429 38.8246 32.178 38.7563 32.0563 38.6346C31.9347 38.513 31.8663 38.348 31.8663 38.176V35.5814C31.8663 35.4094 31.9347 35.2444 32.0563 35.1227C32.178 35.0011 32.3429 34.9327 32.515 34.9327H40.542C40.714 34.9327 40.879 35.0011 41.0007 35.1227C41.1223 35.2444 41.1907 35.4094 41.1907 35.5814V38.176C41.1907 38.348 41.1223 38.513 41.0007 38.6346C40.879 38.7563 40.714 38.8246 40.542 38.8246ZM33.1636 37.5273H39.8934V36.23H33.1636V37.5273Z" fill="white"/>
<path d="M46.3655 36.23H26.6914C26.5193 36.23 26.3544 36.1617 26.2327 36.0401C26.1111 35.9184 26.0427 35.7534 26.0427 35.5814C26.0427 35.4094 26.1111 35.2444 26.2327 35.1227C26.3544 35.0011 26.5193 34.9327 26.6914 34.9327H46.3655C46.5376 34.9327 46.7026 35.0011 46.8242 35.1227C46.9458 35.2444 47.0142 35.4094 47.0142 35.5814C47.0142 35.7534 46.9458 35.9184 46.8242 36.0401C46.7026 36.1617 46.5376 36.23 46.3655 36.23Z" fill="white"/>
<path d="M44.7796 36.2275H33.0247C32.8527 36.2275 32.6877 36.1591 32.5661 36.0375C32.4444 35.9158 32.3761 35.7508 32.3761 35.5788C32.3761 35.4068 32.4444 35.2418 32.5661 35.1202C32.6877 34.9985 32.8527 34.9302 33.0247 34.9302H44.1309V26.6787C44.1309 26.5775 44.0907 26.4805 44.0192 26.409C43.9477 26.3375 43.8507 26.2973 43.7495 26.2973H34.0548C33.9537 26.2975 33.8568 26.3377 33.7853 26.4092C33.7138 26.4807 33.6736 26.5776 33.6734 26.6787V29.0528C33.6734 29.2248 33.6051 29.3898 33.4834 29.5114C33.3618 29.6331 33.1968 29.7014 33.0247 29.7014C32.8527 29.7014 32.6877 29.6331 32.5661 29.5114C32.4444 29.3898 32.3761 29.2248 32.3761 29.0528V26.6787C32.3766 26.2336 32.5536 25.807 32.8683 25.4922C33.1831 25.1775 33.6097 25.0005 34.0548 25H43.7476C44.193 25 44.6201 25.1768 44.9353 25.4916C45.2504 25.8063 45.4277 26.2333 45.4282 26.6787V35.5788C45.4282 35.7508 45.3599 35.9158 45.2382 36.0375C45.1166 36.1591 44.9516 36.2275 44.7796 36.2275Z" fill="white"/>
<path d="M38.9014 36.23H28.6884C28.5164 36.23 28.3514 36.1617 28.2298 36.04C28.1081 35.9184 28.0398 35.7534 28.0398 35.5814V30.0815C28.0403 29.6362 28.2174 29.2093 28.5322 28.8943C28.847 28.5794 29.2739 28.4022 29.7191 28.4015H37.8701C38.3155 28.402 38.7425 28.5792 39.0574 28.8941C39.3724 29.2091 39.5496 29.6361 39.5501 30.0815V35.5814C39.5501 35.7534 39.4817 35.9184 39.3601 36.04C39.2384 36.1617 39.0734 36.23 38.9014 36.23ZM29.3371 34.9327H38.2528V30.0815C38.2526 29.98 38.2122 29.8828 38.1405 29.8111C38.0688 29.7393 37.9715 29.699 37.8701 29.6988H29.7191C29.6178 29.699 29.5206 29.7394 29.449 29.8111C29.3773 29.8829 29.3371 29.9801 29.3371 30.0815V34.9327Z" fill="white"/>
</svg>
