<svg width="285" height="60" viewBox="0 0 285 60" fill="none" xmlns="http://www.w3.org/2000/svg">
<path d="M85.8 19.8H86.62C86.6733 20.0133 86.72 20.2733 86.76 20.58C86.8133 20.8733 86.8533 21.1933 86.88 21.54C86.92 21.8733 86.9467 22.2067 86.96 22.54C86.9733 22.8733 86.98 23.1733 86.98 23.44C86.5133 23.7333 85.9267 23.94 85.22 24.06C84.5267 24.18 83.8133 24.24 83.08 24.24C81.9733 24.24 80.9667 24.1067 80.06 23.84C79.1667 23.56 78.4 23.1267 77.76 22.54C77.1333 21.94 76.6467 21.1867 76.3 20.28C75.9533 19.36 75.78 18.26 75.78 16.98C75.78 15.7133 75.9667 14.6267 76.34 13.72C76.7267 12.8 77.24 12.0467 77.88 11.46C78.52 10.8733 79.26 10.4467 80.1 10.18C80.9533 9.9 81.8467 9.76 82.78 9.76C83.66 9.76 84.4533 9.82667 85.16 9.96C85.88 10.08 86.4667 10.2467 86.92 10.46C86.92 10.6733 86.9067 10.9467 86.88 11.28C86.8667 11.6133 86.8333 11.9667 86.78 12.34C86.74 12.7 86.6867 13.06 86.62 13.42C86.5667 13.7667 86.5133 14.06 86.46 14.3H85.62L84.52 11.28C84.4 11.2133 84.2067 11.16 83.94 11.12C83.6733 11.08 83.4 11.06 83.12 11.06C82.5733 11.06 82.06 11.1733 81.58 11.4C81.1 11.6133 80.6733 11.96 80.3 12.44C79.9267 12.92 79.6333 13.54 79.42 14.3C79.2067 15.0467 79.1 15.9467 79.1 17C79.1 18.9067 79.48 20.3733 80.24 21.4C81 22.4267 82.0333 22.94 83.34 22.94C83.7133 22.94 84.0267 22.9133 84.28 22.86C84.5467 22.7933 84.7267 22.7067 84.82 22.6L85.8 19.8ZM97.4469 21.1C97.4469 21.3933 97.4469 21.6467 97.4469 21.86C97.4602 22.0733 97.4802 22.3 97.5069 22.54L98.8869 22.74V23.44C98.7269 23.52 98.5069 23.6 98.2269 23.68C97.9602 23.76 97.6735 23.84 97.3669 23.92C97.0735 23.9867 96.7802 24.04 96.4869 24.08C96.1935 24.1333 95.9335 24.1733 95.7069 24.2H95.0269C94.8935 23.8933 94.8135 23.5867 94.7869 23.28C94.7602 22.9733 94.7402 22.6 94.7269 22.16H94.6269C94.5602 22.4267 94.4469 22.6867 94.2869 22.94C94.1269 23.18 93.9202 23.4 93.6669 23.6C93.4269 23.7867 93.1402 23.94 92.8069 24.06C92.4735 24.18 92.1002 24.24 91.6869 24.24C91.2469 24.24 90.8402 24.1733 90.4669 24.04C90.0935 23.9067 89.7669 23.72 89.4869 23.48C89.2069 23.24 88.9869 22.9533 88.8269 22.62C88.6669 22.2733 88.5869 21.8867 88.5869 21.46C88.5869 20.86 88.7002 20.3667 88.9269 19.98C89.1535 19.5933 89.5069 19.28 89.9869 19.04C90.4802 18.7867 91.1069 18.6 91.8669 18.48C92.6402 18.36 93.5735 18.2733 94.6669 18.22C94.7735 17.0733 94.7269 16.2333 94.5269 15.7C94.3269 15.1667 93.8935 14.9 93.2269 14.9C92.8135 14.9 92.4335 14.9667 92.0869 15.1L91.1469 17.5H90.2669C90.1602 17.34 90.0535 17.16 89.9469 16.96C89.8535 16.7467 89.7602 16.5267 89.6669 16.3C89.5869 16.06 89.5135 15.82 89.4469 15.58C89.3935 15.34 89.3535 15.1067 89.3269 14.88C89.8335 14.5333 90.4869 14.26 91.2869 14.06C92.0869 13.86 92.9335 13.76 93.8269 13.76C94.5869 13.76 95.2069 13.8467 95.6869 14.02C96.1669 14.18 96.5402 14.4067 96.8069 14.7C97.0869 14.98 97.2802 15.3133 97.3869 15.7C97.4935 16.0867 97.5469 16.5 97.5469 16.94C97.5469 17.74 97.5269 18.4667 97.4869 19.12C97.4602 19.76 97.4469 20.42 97.4469 21.1ZM92.9469 22.64C93.2269 22.64 93.4669 22.5867 93.6669 22.48C93.8669 22.3733 94.0335 22.2467 94.1669 22.1C94.3135 21.9533 94.4202 21.7933 94.4869 21.62C94.5669 21.4467 94.6269 21.2933 94.6669 21.16V19.16C94.0402 19.1733 93.5269 19.2133 93.1269 19.28C92.7269 19.3467 92.4135 19.46 92.1869 19.62C91.9602 19.7667 91.8002 19.96 91.7069 20.2C91.6269 20.4267 91.5869 20.7067 91.5869 21.04C91.5869 21.5467 91.7069 21.94 91.9469 22.22C92.1869 22.5 92.5202 22.64 92.9469 22.64ZM109.8 28H104.36V27.22C104.733 27.0067 105.173 26.8467 105.68 26.74V23.58C105.52 23.78 105.273 23.94 104.94 24.06C104.606 24.18 104.273 24.24 103.94 24.24C103.326 24.24 102.76 24.1467 102.24 23.96C101.733 23.76 101.293 23.46 100.92 23.06C100.546 22.66 100.253 22.1533 100.04 21.54C99.8397 20.9267 99.7397 20.2 99.7397 19.36C99.7397 18.4 99.8464 17.5733 100.06 16.88C100.273 16.1733 100.573 15.5933 100.96 15.14C101.346 14.6733 101.806 14.3267 102.34 14.1C102.886 13.8733 103.493 13.76 104.16 13.76C104.493 13.76 104.8 13.8133 105.08 13.92C105.36 14.0133 105.56 14.14 105.68 14.3V10.62L104.16 10.46V9.68C104.346 9.6 104.6 9.52 104.92 9.44C105.24 9.36 105.573 9.28667 105.92 9.22C106.28 9.15333 106.626 9.1 106.96 9.06C107.293 9.00667 107.573 8.97333 107.8 8.96H108.48V14.42C108.666 14.22 108.926 14.06 109.26 13.94C109.606 13.82 109.966 13.76 110.34 13.76C110.94 13.76 111.486 13.8533 111.98 14.04C112.486 14.2267 112.92 14.5133 113.28 14.9C113.64 15.2867 113.92 15.7733 114.12 16.36C114.32 16.9333 114.42 17.6133 114.42 18.4C114.42 19.4133 114.306 20.2867 114.08 21.02C113.866 21.7533 113.566 22.36 113.18 22.84C112.793 23.32 112.333 23.6733 111.8 23.9C111.266 24.1267 110.693 24.24 110.08 24.24C109.786 24.24 109.486 24.1933 109.18 24.1C108.873 24.02 108.64 23.8933 108.48 23.72V26.74C108.973 26.82 109.413 26.98 109.8 27.22V28ZM104.64 22.98C104.866 22.98 105.066 22.9533 105.24 22.9C105.413 22.8333 105.593 22.7067 105.78 22.52V15.36C105.62 15.2533 105.453 15.1733 105.28 15.12C105.106 15.0533 104.886 15.02 104.62 15.02C104.353 15.02 104.106 15.08 103.88 15.2C103.653 15.32 103.453 15.52 103.28 15.8C103.106 16.0667 102.973 16.4267 102.88 16.88C102.786 17.3333 102.74 17.9 102.74 18.58C102.74 19.4867 102.786 20.2267 102.88 20.8C102.973 21.36 103.1 21.8067 103.26 22.14C103.433 22.46 103.633 22.68 103.86 22.8C104.1 22.92 104.36 22.98 104.64 22.98ZM109.5 15.02C109.273 15.02 109.073 15.0533 108.9 15.12C108.74 15.1733 108.566 15.28 108.38 15.44V22.62C108.54 22.7533 108.706 22.8467 108.88 22.9C109.053 22.9533 109.273 22.98 109.54 22.98C109.78 22.98 110.013 22.92 110.24 22.8C110.466 22.68 110.666 22.4733 110.84 22.18C111.013 21.8733 111.153 21.4733 111.26 20.98C111.366 20.4867 111.42 19.86 111.42 19.1C111.42 18.2867 111.373 17.6133 111.28 17.08C111.2 16.5467 111.08 16.1333 110.92 15.84C110.76 15.5333 110.56 15.32 110.32 15.2C110.08 15.08 109.806 15.02 109.5 15.02ZM124.4 21.1C124.4 21.3933 124.4 21.6467 124.4 21.86C124.413 22.0733 124.433 22.3 124.46 22.54L125.84 22.74V23.44C125.68 23.52 125.46 23.6 125.18 23.68C124.913 23.76 124.627 23.84 124.32 23.92C124.027 23.9867 123.733 24.04 123.44 24.08C123.147 24.1333 122.887 24.1733 122.66 24.2H121.98C121.847 23.8933 121.767 23.5867 121.74 23.28C121.713 22.9733 121.693 22.6 121.68 22.16H121.58C121.513 22.4267 121.4 22.6867 121.24 22.94C121.08 23.18 120.873 23.4 120.62 23.6C120.38 23.7867 120.093 23.94 119.76 24.06C119.427 24.18 119.053 24.24 118.64 24.24C118.2 24.24 117.793 24.1733 117.42 24.04C117.047 23.9067 116.72 23.72 116.44 23.48C116.16 23.24 115.94 22.9533 115.78 22.62C115.62 22.2733 115.54 21.8867 115.54 21.46C115.54 20.86 115.653 20.3667 115.88 19.98C116.107 19.5933 116.46 19.28 116.94 19.04C117.433 18.7867 118.06 18.6 118.82 18.48C119.593 18.36 120.527 18.2733 121.62 18.22C121.727 17.0733 121.68 16.2333 121.48 15.7C121.28 15.1667 120.847 14.9 120.18 14.9C119.767 14.9 119.387 14.9667 119.04 15.1L118.1 17.5H117.22C117.113 17.34 117.007 17.16 116.9 16.96C116.807 16.7467 116.713 16.5267 116.62 16.3C116.54 16.06 116.467 15.82 116.4 15.58C116.347 15.34 116.307 15.1067 116.28 14.88C116.787 14.5333 117.44 14.26 118.24 14.06C119.04 13.86 119.887 13.76 120.78 13.76C121.54 13.76 122.16 13.8467 122.64 14.02C123.12 14.18 123.493 14.4067 123.76 14.7C124.04 14.98 124.233 15.3133 124.34 15.7C124.447 16.0867 124.5 16.5 124.5 16.94C124.5 17.74 124.48 18.4667 124.44 19.12C124.413 19.76 124.4 20.42 124.4 21.1ZM119.9 22.64C120.18 22.64 120.42 22.5867 120.62 22.48C120.82 22.3733 120.987 22.2467 121.12 22.1C121.267 21.9533 121.373 21.7933 121.44 21.62C121.52 21.4467 121.58 21.2933 121.62 21.16V19.16C120.993 19.1733 120.48 19.2133 120.08 19.28C119.68 19.3467 119.367 19.46 119.14 19.62C118.913 19.7667 118.753 19.96 118.66 20.2C118.58 20.4267 118.54 20.7067 118.54 21.04C118.54 21.5467 118.66 21.94 118.9 22.22C119.14 22.5 119.473 22.64 119.9 22.64ZM132.073 28H126.553V27.22C127.006 27.0067 127.446 26.8467 127.873 26.74V15.42L126.553 15.26V14.48C126.766 14.3867 127.026 14.3 127.333 14.22C127.653 14.14 127.979 14.0733 128.313 14.02C128.646 13.9533 128.966 13.9 129.273 13.86C129.593 13.82 129.859 13.7867 130.073 13.76H130.753V16H130.773C130.999 15.36 131.353 14.8267 131.833 14.4C132.326 13.9733 133.006 13.76 133.873 13.76C134.459 13.76 134.986 13.86 135.453 14.06C135.933 14.2467 136.333 14.5467 136.653 14.96C136.986 15.36 137.239 15.88 137.413 16.52C137.599 17.1467 137.693 17.9 137.693 18.78C137.693 19.62 137.573 20.38 137.333 21.06C137.106 21.74 136.773 22.3133 136.333 22.78C135.906 23.2467 135.379 23.6067 134.753 23.86C134.139 24.1133 133.439 24.24 132.653 24.24C132.199 24.24 131.839 24.2067 131.573 24.14C131.319 24.0867 131.046 23.9867 130.753 23.84V26.74C130.966 26.7667 131.179 26.8133 131.393 26.88C131.606 26.96 131.833 27.0733 132.073 27.22V28ZM132.713 15.36C132.259 15.36 131.853 15.52 131.493 15.84C131.146 16.16 130.899 16.6533 130.753 17.32V22.64C130.966 22.8 131.193 22.92 131.433 23C131.673 23.0667 131.986 23.1 132.373 23.1C133.133 23.1 133.693 22.7333 134.053 22C134.413 21.2667 134.593 20.1933 134.593 18.78C134.593 17.6867 134.453 16.8467 134.173 16.26C133.906 15.66 133.419 15.36 132.713 15.36ZM138.9 14H144.22V14.78C144.074 14.86 143.9 14.94 143.7 15.02C143.514 15.1 143.287 15.18 143.02 15.26V19.76L142.8 21.62H142.9L143.68 20.12L147.34 14H151.12V14.78C150.694 15.02 150.254 15.18 149.8 15.26V22.74C150.054 22.8067 150.294 22.88 150.52 22.96C150.747 23.0267 150.947 23.1133 151.12 23.22V24H145.8V23.22C146.174 23.0067 146.574 22.8467 147 22.74V18.02L147.2 16.44H147.1L146.34 17.94L142.72 24H138.9V23.22C139.127 23.1133 139.347 23.0267 139.56 22.96C139.774 22.88 139.994 22.8067 140.22 22.74V15.26C139.7 15.18 139.26 15.02 138.9 14.78V14ZM167.19 24H160.31V23.24C160.577 23.1333 160.877 23.0267 161.21 22.92C161.557 22.8 161.903 22.7133 162.25 22.66V11.3H159.93L158.65 14.72H157.83C157.777 14.4533 157.723 14.1133 157.67 13.7C157.617 13.2867 157.57 12.86 157.53 12.42C157.49 11.98 157.457 11.5467 157.43 11.12C157.403 10.68 157.39 10.3067 157.39 10H170.13C170.13 10.32 170.117 10.6933 170.09 11.12C170.063 11.5467 170.03 11.98 169.99 12.42C169.95 12.86 169.903 13.2867 169.85 13.7C169.797 14.1 169.743 14.44 169.69 14.72H168.85L167.57 11.3H165.25V22.66C165.597 22.7267 165.937 22.8067 166.27 22.9C166.617 22.9933 166.923 23.1067 167.19 23.24V24ZM180.81 11.34C180.49 11.2733 180.21 11.1933 179.97 11.1C179.73 10.9933 179.496 10.88 179.27 10.76V10H184.11V10.76C183.963 10.8667 183.763 10.9733 183.51 11.08C183.27 11.1733 182.996 11.26 182.69 11.34L178.87 19.98C178.23 21.4467 177.563 22.54 176.87 23.26C176.176 23.9667 175.436 24.2467 174.65 24.1C174.543 23.9933 174.43 23.8333 174.31 23.62C174.203 23.3933 174.096 23.16 173.99 22.92C173.896 22.6667 173.816 22.4267 173.75 22.2C173.683 21.96 173.643 21.76 173.63 21.6L174.19 20.8L176.57 21.54C176.676 21.42 176.776 21.2733 176.87 21.1C176.963 20.9267 177.05 20.7333 177.13 20.52L171.81 11.34C171.556 11.2733 171.31 11.1933 171.07 11.1C170.843 10.9933 170.63 10.88 170.43 10.76V10H176.67V10.76C176.27 11 175.763 11.1933 175.15 11.34L177.97 16.76L178.39 18.04H178.43L178.83 16.72L180.81 11.34ZM189.142 22.66C189.502 22.7133 189.855 22.7933 190.202 22.9C190.562 22.9933 190.882 23.1067 191.162 23.24V24H184.502V23.24C184.755 23.0933 185.022 22.9733 185.302 22.88C185.595 22.7867 185.875 22.7133 186.142 22.66V11.34C185.835 11.2867 185.542 11.2133 185.262 11.12C184.982 11.0133 184.728 10.8933 184.502 10.76V10H187.022C187.555 10 188.162 9.97333 188.842 9.92C189.535 9.86667 190.168 9.84 190.742 9.84C191.448 9.84 192.135 9.91333 192.802 10.06C193.482 10.1933 194.082 10.4267 194.602 10.76C195.135 11.0933 195.562 11.54 195.882 12.1C196.202 12.6467 196.362 13.3333 196.362 14.16C196.362 14.9467 196.202 15.6267 195.882 16.2C195.575 16.7733 195.162 17.2467 194.642 17.62C194.122 17.9933 193.522 18.2733 192.842 18.46C192.162 18.6333 191.462 18.72 190.742 18.72C190.675 18.72 190.568 18.72 190.422 18.72C190.275 18.72 190.115 18.72 189.942 18.72C189.782 18.7067 189.622 18.7 189.462 18.7C189.315 18.6867 189.208 18.6733 189.142 18.66V22.66ZM190.222 11.14C189.955 11.14 189.742 11.1533 189.582 11.18C189.435 11.1933 189.288 11.22 189.142 11.26V17.34C189.262 17.38 189.442 17.4067 189.682 17.42C189.922 17.42 190.115 17.42 190.262 17.42C190.622 17.42 190.968 17.36 191.302 17.24C191.635 17.12 191.928 16.9333 192.182 16.68C192.448 16.4267 192.662 16.1 192.822 15.7C192.982 15.3 193.062 14.82 193.062 14.26C193.062 13.1933 192.802 12.4067 192.282 11.9C191.762 11.3933 191.075 11.14 190.222 11.14ZM203.315 24H197.295V23.24C197.548 23.1067 197.815 22.9867 198.095 22.88C198.375 22.7733 198.655 22.7 198.935 22.66V11.34C198.668 11.2733 198.388 11.2 198.095 11.12C197.801 11.0267 197.535 10.9067 197.295 10.76V10H203.315V10.76C203.115 10.88 202.888 10.9933 202.635 11.1C202.381 11.2067 202.108 11.2867 201.815 11.34V18.94L201.615 20.5L202.595 18.86L207.635 11.82V11.34C207.008 11.1933 206.481 11 206.055 10.76V10H212.075V10.76C211.848 10.9067 211.588 11.0267 211.295 11.12C211.015 11.2 210.728 11.2733 210.435 11.34V22.66C210.741 22.7133 211.028 22.7933 211.295 22.9C211.575 22.9933 211.835 23.1067 212.075 23.24V24H206.055V23.24C206.241 23.1467 206.461 23.0467 206.715 22.94C206.981 22.82 207.261 22.7267 207.555 22.66V15.08L207.755 13.5L206.855 15.08L201.735 22.22V22.66C202.041 22.7267 202.328 22.8133 202.595 22.92C202.861 23.0267 203.101 23.1333 203.315 23.24V24ZM223.28 19.8H224.1C224.154 20.0133 224.2 20.2733 224.24 20.58C224.294 20.8733 224.334 21.1933 224.36 21.54C224.4 21.8733 224.427 22.2067 224.44 22.54C224.454 22.8733 224.46 23.1733 224.46 23.44C223.994 23.7333 223.407 23.94 222.7 24.06C222.007 24.18 221.294 24.24 220.56 24.24C219.454 24.24 218.447 24.1067 217.54 23.84C216.647 23.56 215.88 23.1267 215.24 22.54C214.614 21.94 214.127 21.1867 213.78 20.28C213.434 19.36 213.26 18.26 213.26 16.98C213.26 15.7133 213.447 14.6267 213.82 13.72C214.207 12.8 214.72 12.0467 215.36 11.46C216 10.8733 216.74 10.4467 217.58 10.18C218.434 9.9 219.327 9.76 220.26 9.76C221.14 9.76 221.934 9.82667 222.64 9.96C223.36 10.08 223.947 10.2467 224.4 10.46C224.4 10.6733 224.387 10.9467 224.36 11.28C224.347 11.6133 224.314 11.9667 224.26 12.34C224.22 12.7 224.167 13.06 224.1 13.42C224.047 13.7667 223.994 14.06 223.94 14.3H223.1L222 11.28C221.88 11.2133 221.687 11.16 221.42 11.12C221.154 11.08 220.88 11.06 220.6 11.06C220.054 11.06 219.54 11.1733 219.06 11.4C218.58 11.6133 218.154 11.96 217.78 12.44C217.407 12.92 217.114 13.54 216.9 14.3C216.687 15.0467 216.58 15.9467 216.58 17C216.58 18.9067 216.96 20.3733 217.72 21.4C218.48 22.4267 219.514 22.94 220.82 22.94C221.194 22.94 221.507 22.9133 221.76 22.86C222.027 22.7933 222.207 22.7067 222.3 22.6L223.28 19.8ZM235.08 24H228.2V23.24C228.467 23.1333 228.767 23.0267 229.1 22.92C229.447 22.8 229.794 22.7133 230.14 22.66V11.3H227.82L226.54 14.72H225.72C225.667 14.4533 225.614 14.1133 225.56 13.7C225.507 13.2867 225.46 12.86 225.42 12.42C225.38 11.98 225.347 11.5467 225.32 11.12C225.294 10.68 225.28 10.3067 225.28 10H238.02C238.02 10.32 238.007 10.6933 237.98 11.12C237.954 11.5467 237.92 11.98 237.88 12.42C237.84 12.86 237.794 13.2867 237.74 13.7C237.687 14.1 237.634 14.44 237.58 14.72H236.74L235.46 11.3H233.14V22.66C233.487 22.7267 233.827 22.8067 234.16 22.9C234.507 22.9933 234.814 23.1067 235.08 23.24V24ZM244.74 24H238.72V23.24C238.974 23.1067 239.24 22.9867 239.52 22.88C239.8 22.7733 240.08 22.7 240.36 22.66V11.34C240.094 11.2733 239.814 11.2 239.52 11.12C239.227 11.0267 238.96 10.9067 238.72 10.76V10H244.74V10.76C244.54 10.88 244.314 10.9933 244.06 11.1C243.807 11.2067 243.534 11.2867 243.24 11.34V18.94L243.04 20.5L244.02 18.86L249.06 11.82V11.34C248.434 11.1933 247.907 11 247.48 10.76V10H253.5V10.76C253.274 10.9067 253.014 11.0267 252.72 11.12C252.44 11.2 252.154 11.2733 251.86 11.34V22.66C252.167 22.7133 252.454 22.7933 252.72 22.9C253 22.9933 253.26 23.1067 253.5 23.24V24H247.48V23.24C247.667 23.1467 247.887 23.0467 248.14 22.94C248.407 22.82 248.687 22.7267 248.98 22.66V15.08L249.18 13.5L248.28 15.08L243.16 22.22V22.66C243.467 22.7267 243.754 22.8133 244.02 22.92C244.287 23.0267 244.527 23.1333 244.74 23.24V24ZM261.886 10H267.246V10.76C267.02 10.9067 266.76 11.0333 266.466 11.14C266.173 11.2333 265.906 11.3 265.666 11.34L261.866 16.16C262.173 16.5867 262.533 17.0733 262.946 17.62C263.36 18.1533 263.8 18.7133 264.266 19.3C264.733 19.8733 265.213 20.46 265.706 21.06C266.2 21.6467 266.68 22.2067 267.146 22.74L268.106 23.32V24H264.626L263.826 23.44C263.506 23.04 263.166 22.6 262.806 22.12C262.46 21.6267 262.113 21.12 261.766 20.6C261.42 20.0667 261.08 19.5333 260.746 19C260.413 18.4667 260.1 17.9467 259.806 17.44H258.946V22.66C259.24 22.7133 259.506 22.7933 259.746 22.9C259.986 23.0067 260.193 23.12 260.366 23.24V24H254.306V23.24C254.573 23.1067 254.846 22.9933 255.126 22.9C255.406 22.7933 255.68 22.7133 255.946 22.66V11.34C255.64 11.3 255.34 11.2267 255.046 11.12C254.766 11.0133 254.52 10.8933 254.306 10.76V10H260.366V10.76C260.193 10.8667 259.98 10.9733 259.726 11.08C259.486 11.1867 259.226 11.2733 258.946 11.34V16.42L260.126 16.14L263.346 11.34C263.08 11.2867 262.813 11.2067 262.546 11.1C262.293 10.98 262.073 10.8667 261.886 10.76V10Z" fill="white"/>
<path d="M85.3271 36.5918H81.2139V48H79.5352V36.5918H75.4307V35.2031H85.3271V36.5918ZM89.4492 45.6182L91.6641 38.4902H93.4043L89.5811 49.4678C88.9893 51.0498 88.0488 51.8408 86.7598 51.8408L86.4521 51.8145L85.8457 51.7002V50.3818L86.2852 50.417C86.8359 50.417 87.2637 50.3057 87.5684 50.083C87.8789 49.8604 88.1338 49.4531 88.333 48.8613L88.6934 47.8945L85.3008 38.4902H87.0762L89.4492 45.6182ZM102.896 43.3506C102.896 44.7979 102.565 45.9639 101.903 46.8486C101.241 47.7334 100.345 48.1758 99.2139 48.1758C98.0596 48.1758 97.1514 47.8096 96.4893 47.0771V51.6562H94.8633V38.4902H96.3486L96.4277 39.5449C97.0898 38.7246 98.0098 38.3145 99.1875 38.3145C100.33 38.3145 101.232 38.7451 101.895 39.6064C102.562 40.4678 102.896 41.666 102.896 43.2012V43.3506ZM101.271 43.166C101.271 42.0938 101.042 41.2471 100.585 40.626C100.128 40.0049 99.501 39.6943 98.7041 39.6943C97.7197 39.6943 96.9814 40.1309 96.4893 41.0039V45.5479C96.9756 46.415 97.7197 46.8486 98.7217 46.8486C99.501 46.8486 100.119 46.541 100.576 45.9258C101.039 45.3047 101.271 44.3848 101.271 43.166ZM110.842 48C110.748 47.8125 110.672 47.4785 110.613 46.998C109.857 47.7832 108.955 48.1758 107.906 48.1758C106.969 48.1758 106.198 47.9121 105.595 47.3848C104.997 46.8516 104.698 46.1777 104.698 45.3633C104.698 44.373 105.073 43.6055 105.823 43.0605C106.579 42.5098 107.64 42.2344 109.005 42.2344H110.587V41.4873C110.587 40.9189 110.417 40.4678 110.077 40.1338C109.737 39.7939 109.236 39.624 108.574 39.624C107.994 39.624 107.508 39.7705 107.115 40.0635C106.723 40.3564 106.526 40.7109 106.526 41.127H104.892C104.892 40.6523 105.059 40.1953 105.393 39.7559C105.732 39.3105 106.189 38.959 106.764 38.7012C107.344 38.4434 107.979 38.3145 108.671 38.3145C109.767 38.3145 110.625 38.5898 111.246 39.1406C111.867 39.6855 112.189 40.4385 112.213 41.3994V45.7764C112.213 46.6494 112.324 47.3438 112.547 47.8594V48H110.842ZM108.144 46.7607C108.653 46.7607 109.137 46.6289 109.594 46.3652C110.051 46.1016 110.382 45.7588 110.587 45.3369V43.3857H109.312C107.32 43.3857 106.324 43.9688 106.324 45.1348C106.324 45.6445 106.494 46.043 106.834 46.3301C107.174 46.6172 107.61 46.7607 108.144 46.7607ZM120.905 39.835H116.52V48H114.885V38.4902H120.905V39.835ZM126.091 48.1758C124.802 48.1758 123.753 47.7539 122.944 46.9102C122.136 46.0605 121.731 44.9268 121.731 43.5088V43.21C121.731 42.2666 121.91 41.4258 122.268 40.6875C122.631 39.9434 123.135 39.3633 123.779 38.9473C124.43 38.5254 125.133 38.3145 125.889 38.3145C127.125 38.3145 128.086 38.7217 128.771 39.5361C129.457 40.3506 129.8 41.5166 129.8 43.0342V43.7109H123.357C123.381 44.6484 123.653 45.4072 124.175 45.9873C124.702 46.5615 125.37 46.8486 126.179 46.8486C126.753 46.8486 127.239 46.7314 127.638 46.4971C128.036 46.2627 128.385 45.9521 128.684 45.5654L129.677 46.3389C128.88 47.5635 127.685 48.1758 126.091 48.1758ZM125.889 39.6504C125.232 39.6504 124.682 39.8906 124.236 40.3711C123.791 40.8457 123.516 41.5137 123.41 42.375H128.174V42.252C128.127 41.4258 127.904 40.7871 127.506 40.3359C127.107 39.8789 126.568 39.6504 125.889 39.6504ZM139.459 48H137.833V43.9395H133.465V48H131.83V38.4902H133.465V42.6123H137.833V38.4902H139.459V48ZM149.145 39.8086H145.954V48H144.328V39.8086H141.199V38.4902H149.145V39.8086ZM153.838 46.8486C154.418 46.8486 154.925 46.6729 155.358 46.3213C155.792 45.9697 156.032 45.5303 156.079 45.0029H157.617C157.588 45.5479 157.4 46.0664 157.055 46.5586C156.709 47.0508 156.246 47.4434 155.666 47.7363C155.092 48.0293 154.482 48.1758 153.838 48.1758C152.543 48.1758 151.512 47.7451 150.744 46.8838C149.982 46.0166 149.602 44.833 149.602 43.333V43.0605C149.602 42.1348 149.771 41.3115 150.111 40.5908C150.451 39.8701 150.938 39.3105 151.57 38.9121C152.209 38.5137 152.962 38.3145 153.829 38.3145C154.896 38.3145 155.78 38.6338 156.483 39.2725C157.192 39.9111 157.57 40.7402 157.617 41.7598H156.079C156.032 41.1445 155.798 40.6406 155.376 40.248C154.96 39.8496 154.444 39.6504 153.829 39.6504C153.003 39.6504 152.361 39.9492 151.904 40.5469C151.453 41.1387 151.228 41.9971 151.228 43.1221V43.4297C151.228 44.5254 151.453 45.3691 151.904 45.9609C152.355 46.5527 153 46.8486 153.838 46.8486ZM166.512 39.8086H163.321V48H161.695V39.8086H158.566V38.4902H166.512V39.8086ZM168.243 48V38.4902H171.952C173.218 38.4902 174.188 38.7129 174.861 39.1582C175.541 39.5977 175.881 40.2451 175.881 41.1006C175.881 41.54 175.749 41.9385 175.485 42.2959C175.222 42.6475 174.832 42.917 174.316 43.1045C174.891 43.2393 175.351 43.5029 175.696 43.8955C176.048 44.2881 176.224 44.7568 176.224 45.3018C176.224 46.1748 175.901 46.8428 175.257 47.3057C174.618 47.7686 173.713 48 172.541 48H168.243ZM169.869 43.8252V46.6904H172.559C173.238 46.6904 173.745 46.5645 174.079 46.3125C174.419 46.0605 174.589 45.7061 174.589 45.249C174.589 44.2998 173.892 43.8252 172.497 43.8252H169.869ZM169.869 42.5244H171.97C173.493 42.5244 174.255 42.0791 174.255 41.1885C174.255 40.2979 173.534 39.8379 172.093 39.8086H169.869V42.5244ZM177.946 43.1572C177.946 42.2256 178.128 41.3877 178.491 40.6436C178.86 39.8994 179.37 39.3252 180.021 38.9209C180.677 38.5166 181.424 38.3145 182.262 38.3145C183.557 38.3145 184.603 38.7627 185.399 39.6592C186.202 40.5557 186.604 41.748 186.604 43.2363V43.3506C186.604 44.2764 186.425 45.1084 186.067 45.8467C185.716 46.5791 185.209 47.1504 184.547 47.5605C183.891 47.9707 183.135 48.1758 182.279 48.1758C180.99 48.1758 179.944 47.7275 179.142 46.8311C178.345 45.9346 177.946 44.748 177.946 43.2715V43.1572ZM179.581 43.3506C179.581 44.4053 179.824 45.252 180.311 45.8906C180.803 46.5293 181.459 46.8486 182.279 46.8486C183.105 46.8486 183.762 46.5264 184.248 45.8818C184.734 45.2314 184.978 44.3232 184.978 43.1572C184.978 42.1143 184.729 41.2705 184.23 40.626C183.738 39.9756 183.082 39.6504 182.262 39.6504C181.459 39.6504 180.812 39.9697 180.319 40.6084C179.827 41.2471 179.581 42.1611 179.581 43.3506Z" fill="white"/>
<circle cx="30" cy="30" r="29.5" stroke="white"/>
<path d="M63.2078 10.5356L61.0769 7.42788L59.2867 5.8765L59.2701 4.60788L58.4212 4L57.3559 6.26637L55.7459 5.22236L55.1886 5.78887L55.8148 7.0446L46.5703 15.8584L32.0115 22.9515L27.644 23.9181L26.6165 24.4447L23.9038 27.9511L22.7772 31.7466L22.5127 33.8448L23.0969 35.0974L23.1586 34.6399L24.1991 30.8548L23.2062 38.4985L22.0798 41.9438L20 52.4316H21.8884L21.3175 51.4826L22.3093 46.4718L26.0545 38.9928L25.3657 41.8043L28.2919 52.4316H30.2819L29.4497 51.3724L28.0537 47.2084L27.4639 40.9549L29.6087 36.0147L30.8934 34.7613L36.845 34.77L37.8978 35.8196L35.9732 50.1469L36.05 52.4316H37.9439L37.2455 51.3825L37.506 45.9273L40.4114 35.9413L40.7681 35.9438L47.1446 52.4316H49.0591L48.0865 51.4382L46.353 46.7498L43.6351 34.9205L44.3556 28.8518L44.0028 27.1587L44.3345 25.9676L56.7052 11.9222L58.5897 11.5542L63.3487 13.2859L63.6867 11.9442L63.2078 10.5356Z" fill="white"/>
</svg>
